<?xml version="1.0" encoding="UTF-8"?>
<svg xmlns="http://www.w3.org/2000/svg" xmlns:xlink="http://www.w3.org/1999/xlink" width="253.9pt" height="254.1pt" viewBox="0 0 253.9 254.1" version="1.1">
<defs>
<clipPath id="clip1">
  <path d="M 1 0 L 253.898438 0 L 253.898438 254 L 1 254 Z M 1 0 "/>
</clipPath>
</defs>
<g id="surface1">
<g clip-path="url(#clip1)" clip-rule="nonzero">
<path style=" stroke:none;fill-rule:evenodd;fill:rgb(84.375%,70.117188%,41.184998%);fill-opacity:1;" d="M 74.796875 45.757813 C 73.808594 35.320313 64.574219 28.089844 59.441406 25.980469 C 63.257813 20.710938 71.585938 19.921875 82.453125 22.867188 C 86.746094 15.429688 91.535156 4.644531 101.320313 1.84375 C 96.511719 16.960938 97.3125 28.355469 102.351563 33.660156 C 92.46875 36.253906 83.195313 40.378906 74.796875 45.757813 Z M 110.703125 31.867188 C 112.886719 22.007813 106.945313 12.4375 102.96875 8.777344 C 108.382813 5.152344 116.464844 7.308594 125.632813 13.84375 C 132.246094 8.363281 140.476563 -0.09375 150.628906 0.675781 C 140.539063 13.605469 137.453125 24.894531 140.863281 31.546875 C 136.269531 30.871094 131.574219 30.515625 126.796875 30.515625 C 121.316406 30.515625 115.941406 30.984375 110.703125 31.867188 Z M 149.164063 33.140625 C 154.046875 24.738281 151.816406 14.179688 149.410156 9.503906 C 155.742188 7.964844 162.589844 12.769531 168.949219 22.058594 C 177.039063 19.183594 187.683594 14.078125 196.949219 18.289063 C 182.449219 27.320313 175.699219 37.296875 177.316406 44.839844 C 168.722656 39.535156 159.246094 35.546875 149.164063 33.140625 Z M 182.738281 48.425781 C 191.269531 43.015625 193.855469 32.050781 193.640625 26.644531 C 200.027344 27.921875 204.203125 35.171875 206.046875 46.277344 C 214.597656 47.089844 226.398438 46.953125 233.015625 54.683594 C 216.78125 56.660156 206.621094 62.421875 204.277344 69.503906 C 198.238281 61.410156 190.964844 54.296875 182.738281 48.425781 Z M 208.664063 75.902344 C 218.589844 74.109375 225.121094 64.953125 226.96875 59.878906 C 232.394531 63.480469 233.515625 71.765625 231.015625 82.742188 C 238.621094 86.734375 249.59375 91.074219 252.789063 100.738281 C 236.964844 96.402344 225.355469 97.90625 220.535156 103.628906 C 218.03125 93.691406 213.984375 84.359375 208.664063 75.902344 Z M 222.0625 110.867188 C 231.96875 113.28125 241.703125 107.386719 245.429688 103.421875 C 248.996094 108.871094 246.757813 116.925781 240.132813 126.027344 C 245.546875 132.695313 253.914063 141.007813 253.039063 151.148438 C 240.328125 141.019531 229.160156 137.789063 222.453125 140.992188 C 223.105469 136.472656 223.449219 131.859375 223.449219 127.171875 C 223.449219 121.613281 222.972656 116.171875 222.0625 110.867188 Z M 220.882813 149.296875 C 229.246094 154.460938 239.976563 152.355469 244.722656 149.996094 C 246.175781 156.34375 241.28125 163.121094 231.910156 169.355469 C 234.671875 177.488281 239.632813 188.191406 235.296875 197.398438 C 226.585938 182.980469 216.855469 176.089844 209.335938 177.355469 C 214.574219 168.78125 218.515625 159.339844 220.882813 149.296875 Z M 205.695313 182.878906 C 210.933594 191.667969 222.015625 194.460938 227.46875 194.3125 C 226.105469 200.683594 218.804688 204.757813 207.675781 206.457031 C 206.746094 214.988281 206.722656 226.785156 198.902344 233.296875 C 197.164063 217.226563 191.660156 207.035156 184.71875 204.457031 C 192.777344 198.394531 199.863281 191.109375 205.695313 182.878906 Z M 178.296875 208.886719 C 179.835938 218.984375 189.015625 225.742188 194.109375 227.675781 C 190.4375 233.050781 182.136719 234.058594 171.195313 231.414063 C 167.101563 238.964844 162.613281 249.875 152.910156 252.9375 C 157.40625 237.359375 156.144531 225.820313 150.660156 220.828125 C 160.566406 218.292969 169.871094 214.222656 178.296875 208.886719 Z M 143.371094 222.386719 C 140.652344 232.347656 146.484375 242.304688 150.433594 246.117188 C 144.9375 249.609375 136.910156 247.265625 127.902344 240.515625 C 121.164063 245.839844 112.738281 254.09375 102.609375 253.082031 C 112.796875 240.652344 116.21875 229.632813 113.285156 222.863281 C 117.703125 223.488281 122.214844 223.816406 126.796875 223.816406 C 132.449219 223.816406 137.984375 223.328125 143.371094 222.386719 Z M 104.921875 221.3125 C 99.46875 229.632813 101.4375 240.535156 103.757813 245.355469 C 97.390625 246.722656 90.671875 241.734375 84.570313 232.28125 C 76.40625 234.929688 65.636719 239.746094 56.488281 235.285156 C 70.835938 226.882813 77.867188 217.386719 76.917969 209.894531 C 85.484375 215.085938 94.90625 218.980469 104.921875 221.3125 Z M 71.324219 206.230469 C 62.269531 211.285156 59.277344 222.480469 59.347656 227.984375 C 52.996094 226.535156 49.019531 219.179688 47.480469 208.03125 C 38.957031 206.984375 27.160156 206.800781 20.753906 198.894531 C 36.667969 197.394531 46.886719 192.128906 49.699219 185.335938 C 55.777344 193.363281 63.078125 200.425781 71.324219 206.230469 Z M 45.230469 178.910156 C 34.960938 180.179688 27.972656 189.386719 25.953125 194.503906 C 20.621094 190.753906 19.730469 182.441406 22.527344 171.539063 C 15.035156 167.34375 4.1875 162.710938 1.25 152.964844 C 16.589844 157.617188 28.058594 156.589844 33.214844 151.328125 C 35.777344 161.21875 39.871094 170.503906 45.230469 178.910156 Z M 31.628906 144.035156 C 21.617188 140.992188 11.429688 146.757813 7.527344 150.691406 C 4.109375 145.148438 6.5625 137.152344 13.433594 128.238281 C 8.203125 121.425781 0.0625 112.886719 1.207031 102.773438 C 13.371094 113.015625 24.234375 116.621094 31.058594 113.949219 C 30.460938 118.273438 30.148438 122.683594 30.148438 127.171875 C 30.148438 132.921875 30.65625 138.554688 31.628906 144.035156 Z M 32.59375 105.546875 C 24.320313 99.804688 13.242188 101.636719 8.347656 103.910156 C 7.066406 97.523438 12.144531 90.878906 21.683594 84.902344 C 19.140625 76.699219 14.472656 65.863281 19.058594 56.777344 C 27.164063 71.0625 36.441406 78.222656 43.894531 77.589844 C 38.753906 86.140625 34.894531 95.550781 32.59375 105.546875 Z M 47.5625 71.941406 C 42.703125 62.621094 31.390625 59.421875 25.832031 59.410156 C 27.367188 53.085938 34.777344 49.203125 45.949219 47.8125 C 47.109375 39.304688 47.453125 27.507813 55.449219 21.214844 C 56.71875 36.980469 61.753906 47.214844 68.402344 50.242188 C 60.386719 56.351563 53.34375 63.675781 47.5625 71.941406 Z M 47.5625 71.941406 "/>
</g>
<path style=" stroke:none;fill-rule:evenodd;fill:rgb(0%,26.660156%,58.006287%);fill-opacity:1;" d="M 126.796875 30.515625 C 180.175781 30.515625 223.449219 73.789063 223.449219 127.171875 C 223.449219 180.546875 180.175781 223.816406 126.796875 223.816406 C 73.414063 223.816406 30.148438 180.546875 30.148438 127.171875 C 30.148438 73.789063 73.414063 30.515625 126.796875 30.515625 Z M 126.796875 30.515625 "/>
<path style=" stroke:none;fill-rule:evenodd;fill:rgb(82.8125%,93.359375%,98.046875%);fill-opacity:1;" d="M 126.796875 78.058594 C 153.921875 78.058594 175.90625 100.046875 175.90625 127.171875 C 175.90625 154.289063 153.921875 176.273438 126.796875 176.273438 C 99.671875 176.273438 77.691406 154.289063 77.691406 127.171875 C 77.691406 100.046875 99.671875 78.058594 126.796875 78.058594 Z M 126.796875 78.058594 "/>
<path style=" stroke:none;fill-rule:evenodd;fill:rgb(84.375%,70.117188%,41.184998%);fill-opacity:1;" d="M 126.800781 79.339844 L 141.902344 107.351563 L 173.140625 114.757813 L 149.257813 139.984375 L 155.441406 165.578125 L 126.800781 152.214844 L 98.160156 165.578125 L 104.34375 139.984375 L 80.460938 114.757813 L 111.699219 107.351563 Z M 126.800781 79.339844 "/>
<path style=" stroke:none;fill-rule:evenodd;fill:rgb(84.375%,70.117188%,41.184998%);fill-opacity:1;" d="M 127.03125 192.757813 C 129.816406 191.015625 132.214844 190.480469 134.261719 192.277344 C 139.828125 197.15625 131.054688 204.84375 127.03125 207.914063 C 123.425781 204.878906 113.40625 198.082031 119.421875 192.277344 C 121.664063 190.109375 125.09375 191.117188 127.03125 192.757813 Z M 127.03125 192.757813 "/>
<path style=" stroke:none;fill-rule:evenodd;fill:rgb(84.375%,70.117188%,41.184998%);fill-opacity:1;" d="M 92.972656 197.792969 L 89.230469 195.804688 C 87.414063 194.839844 86.96875 193.429688 87.902344 191.585938 C 88.304688 190.796875 88.734375 190.265625 89.1875 189.992188 C 89.644531 189.722656 90.160156 189.621094 90.742188 189.691406 C 89.699219 188.929688 89.601563 187.714844 90.449219 186.042969 C 90.777344 185.425781 91.179688 184.902344 91.660156 184.472656 C 92.140625 184.042969 92.671875 183.785156 93.269531 183.695313 C 93.859375 183.609375 94.480469 183.738281 95.128906 184.085938 L 99.132813 186.214844 Z M 91.710938 194.929688 L 93.296875 191.941406 L 92.539063 191.542969 C 92.03125 191.269531 91.605469 191.179688 91.265625 191.273438 C 90.917969 191.371094 90.589844 191.726563 90.261719 192.34375 C 89.9375 192.972656 89.835938 193.421875 89.949219 193.6875 C 90.066406 193.957031 90.402344 194.234375 90.957031 194.527344 Z M 93.082031 189.675781 L 94.191406 190.261719 L 96.066406 186.738281 L 94.898438 186.113281 C 94.097656 185.6875 93.359375 186.058594 92.683594 187.230469 C 92.035156 188.378906 92.164063 189.1875 93.082031 189.675781 Z M 79.65625 179.59375 C 80.472656 178.628906 81.183594 177.898438 81.789063 177.417969 C 82.398438 176.9375 83.101563 176.691406 83.902344 176.679688 C 84.703125 176.671875 85.585938 177.058594 86.554688 177.839844 C 88.019531 179.027344 88.640625 180.132813 88.417969 181.160156 C 88.203125 182.1875 87.558594 183.402344 86.480469 184.804688 L 86.304688 185.023438 L 85.261719 186.3125 C 85.246094 186.332031 85.234375 186.347656 85.21875 186.363281 C 85.203125 186.382813 85.164063 186.445313 85.113281 186.550781 C 84.964844 186.714844 84.769531 186.929688 84.53125 187.203125 C 84.289063 187.46875 83.964844 187.800781 83.546875 188.191406 C 83.136719 188.585938 82.742188 188.902344 82.367188 189.152344 C 81.992188 189.402344 81.664063 189.570313 81.382813 189.65625 C 80.574219 189.828125 79.914063 189.8125 79.410156 189.617188 C 78.898438 189.421875 78.367188 189.097656 77.804688 188.644531 C 76.820313 187.847656 76.28125 187.007813 76.183594 186.128906 C 76.085938 185.253906 76.246094 184.433594 76.65625 183.675781 C 77.070313 182.914063 77.621094 182.101563 78.328125 181.234375 Z M 82.121094 186.195313 L 85.109375 182.507813 C 86.164063 181.210938 86.222656 180.175781 85.28125 179.414063 C 84.386719 178.6875 83.414063 178.976563 82.359375 180.277344 L 79.503906 183.804688 C 79.136719 184.253906 78.851563 184.789063 78.644531 185.40625 C 78.433594 186.023438 78.597656 186.554688 79.132813 187.003906 C 79.585938 187.386719 80.070313 187.503906 80.585938 187.359375 C 81.097656 187.214844 81.613281 186.832031 82.121094 186.195313 Z M 69.019531 179.921875 L 66.871094 177.371094 L 75.039063 166.695313 L 76.734375 168.714844 L 74.601563 171.296875 L 76.441406 173.488281 L 79.402344 171.890625 L 81.0625 173.871094 Z M 73.363281 172.863281 L 70.496094 176.289063 L 69.097656 177.738281 L 69.121094 177.765625 L 70.78125 176.621094 L 74.71875 174.476563 Z M 62.289063 171.605469 L 59.773438 167.585938 C 58.539063 165.609375 58.761719 164.050781 60.433594 162.910156 C 61.214844 162.382813 61.953125 162.113281 62.644531 162.105469 C 63.339844 162.097656 63.902344 162.371094 64.332031 162.925781 C 64.113281 162.46875 64.027344 162.066406 64.066406 161.714844 C 64.105469 161.355469 64.21875 161.0625 64.410156 160.832031 C 64.597656 160.59375 64.816406 160.390625 65.058594 160.21875 C 65.296875 160.046875 65.582031 159.859375 65.910156 159.65625 C 66.65625 159.160156 67.308594 158.691406 67.867188 158.246094 C 68.421875 157.800781 68.644531 157.484375 68.527344 157.296875 L 68.734375 157.167969 L 70.234375 159.566406 C 69.980469 159.777344 69.605469 160.054688 69.105469 160.394531 C 68.605469 160.734375 68.214844 161.03125 67.9375 161.289063 L 67.183594 161.757813 C 66.648438 162.09375 66.320313 162.445313 66.191406 162.820313 C 66.0625 163.195313 66.21875 163.738281 66.664063 164.453125 L 67.347656 165.542969 L 72.109375 162.566406 L 73.414063 164.652344 Z M 61.683594 166.984375 L 62.628906 168.492188 L 65.691406 166.582031 L 64.785156 165.128906 C 64.496094 164.675781 64.144531 164.421875 63.710938 164.371094 C 63.28125 164.316406 62.84375 164.429688 62.398438 164.710938 C 61.859375 165.046875 61.527344 165.386719 61.40625 165.730469 C 61.28125 166.078125 61.371094 166.492188 61.683594 166.984375 Z M 55.117188 159.042969 L 53.429688 154.644531 C 52.945313 153.382813 53.074219 152.296875 53.808594 151.378906 C 54.542969 150.464844 56.066406 149.617188 58.359375 148.847656 C 59.355469 148.515625 60.167969 148.265625 60.820313 148.097656 C 61.464844 147.929688 62.105469 147.839844 62.742188 147.828125 C 63.378906 147.8125 63.953125 147.96875 64.460938 148.289063 C 64.972656 148.609375 65.371094 149.152344 65.664063 149.910156 L 67.363281 154.339844 Z M 56.039063 156.050781 L 64.707031 152.726563 L 64.246094 151.519531 C 64.011719 150.914063 63.664063 150.53125 63.21875 150.382813 C 62.769531 150.230469 62.230469 150.234375 61.597656 150.394531 C 60.96875 150.558594 60.105469 150.859375 59.007813 151.308594 C 57.484375 151.921875 56.449219 152.441406 55.902344 152.882813 C 55.355469 153.324219 55.199219 153.847656 55.429688 154.460938 Z M 56.160156 131.066406 C 57.417969 130.933594 58.4375 130.90625 59.207031 130.980469 C 59.976563 131.058594 60.65625 131.371094 61.238281 131.921875 C 61.820313 132.46875 62.1875 133.359375 62.339844 134.59375 C 62.570313 136.464844 62.246094 137.695313 61.378906 138.28125 C 60.507813 138.867188 59.195313 139.296875 57.449219 139.554688 L 57.167969 139.589844 L 55.527344 139.789063 C 55.503906 139.796875 55.480469 139.796875 55.457031 139.800781 C 55.433594 139.804688 55.367188 139.824219 55.253906 139.859375 C 55.03125 139.878906 54.742188 139.894531 54.382813 139.921875 C 54.023438 139.949219 53.558594 139.964844 52.988281 139.953125 C 52.417969 139.949219 51.914063 139.902344 51.46875 139.824219 C 51.027344 139.742188 50.671875 139.636719 50.414063 139.503906 C 49.714844 139.0625 49.246094 138.597656 49.019531 138.105469 C 48.789063 137.609375 48.628906 137.007813 48.539063 136.289063 C 48.386719 135.03125 48.578125 134.054688 49.121094 133.355469 C 49.660156 132.65625 50.34375 132.175781 51.164063 131.921875 C 51.992188 131.65625 52.957031 131.464844 54.066406 131.324219 Z M 53.351563 137.527344 L 58.058594 136.949219 C 59.722656 136.746094 60.480469 136.046875 60.332031 134.84375 C 60.191406 133.699219 59.289063 133.230469 57.628906 133.433594 L 53.121094 133.988281 C 52.546875 134.058594 51.972656 134.242188 51.394531 134.546875 C 50.816406 134.84375 50.5625 135.339844 50.636719 136.03125 C 50.695313 136.621094 50.960938 137.046875 51.433594 137.296875 C 51.902344 137.550781 52.539063 137.628906 53.351563 137.527344 Z M 48.40625 125.699219 L 49.007813 118.800781 L 50.902344 118.96875 L 50.511719 123.449219 L 53.847656 123.742188 L 54.214844 119.539063 L 56.109375 119.703125 L 55.742188 123.910156 L 61.648438 124.425781 L 61.4375 126.839844 Z M 55.863281 105.144531 C 54.378906 104.753906 53.492188 104.925781 53.210938 105.65625 C 52.789063 106.742188 53.402344 107.523438 55.039063 107.996094 L 59.371094 109.234375 C 60.320313 109.507813 61.054688 109.585938 61.566406 109.460938 C 62.082031 109.335938 62.410156 109.019531 62.554688 108.515625 C 62.710938 107.96875 62.59375 107.539063 62.199219 107.226563 C 61.804688 106.910156 61.09375 106.609375 60.0625 106.3125 L 60.742188 103.949219 C 61.582031 104.226563 62.289063 104.507813 62.878906 104.789063 C 63.460938 105.070313 63.960938 105.550781 64.371094 106.222656 C 64.785156 106.898438 64.832031 107.777344 64.523438 108.863281 C 64.238281 109.894531 63.835938 110.660156 63.316406 111.171875 C 62.792969 111.671875 62.117188 111.941406 61.269531 111.976563 C 60.421875 112.011719 59.355469 111.84375 58.058594 111.472656 L 55.929688 110.863281 C 54.488281 110.449219 53.390625 110.003906 52.644531 109.53125 C 51.898438 109.054688 51.414063 108.484375 51.203125 107.820313 C 50.988281 107.152344 51.011719 106.320313 51.277344 105.316406 C 51.636719 103.933594 52.265625 103.074219 53.160156 102.738281 C 54.054688 102.398438 55.179688 102.425781 56.53125 102.8125 Z M 65.539063 92.152344 C 66.648438 92.765625 67.496094 93.324219 68.085938 93.828125 C 68.667969 94.335938 69.042969 94.976563 69.210938 95.761719 C 69.371094 96.546875 69.164063 97.488281 68.578125 98.589844 C 67.695313 100.253906 66.726563 101.074219 65.671875 101.054688 C 64.621094 101.035156 63.308594 100.632813 61.726563 99.84375 L 61.480469 99.714844 L 60.015625 98.933594 C 59.996094 98.921875 59.976563 98.914063 59.957031 98.902344 C 59.933594 98.890625 59.867188 98.867188 59.753906 98.839844 C 59.566406 98.71875 59.316406 98.570313 59.003906 98.386719 C 58.695313 98.203125 58.308594 97.941406 57.84375 97.613281 C 57.382813 97.28125 56.992188 96.953125 56.671875 96.632813 C 56.359375 96.3125 56.128906 96.023438 55.992188 95.765625 C 55.667969 95.003906 55.558594 94.355469 55.652344 93.820313 C 55.746094 93.28125 55.964844 92.695313 56.304688 92.058594 C 56.898438 90.941406 57.617188 90.253906 58.460938 89.988281 C 59.304688 89.726563 60.140625 89.722656 60.960938 89.984375 C 61.785156 90.242188 62.691406 90.636719 63.671875 91.160156 Z M 59.53125 95.835938 L 63.722656 98.058594 C 65.199219 98.84375 66.222656 98.703125 66.789063 97.636719 C 67.332031 96.621094 66.863281 95.71875 65.382813 94.933594 L 61.378906 92.804688 C 60.867188 92.53125 60.285156 92.351563 59.640625 92.265625 C 58.996094 92.179688 58.503906 92.441406 58.164063 93.050781 C 57.878906 93.570313 57.855469 94.066406 58.09375 94.546875 C 58.335938 95.019531 58.8125 95.449219 59.53125 95.835938 Z M 61.476563 83.871094 L 62.984375 81.796875 L 69.589844 83.535156 L 73.390625 84.808594 C 71.597656 83.710938 70.324219 82.921875 69.558594 82.433594 C 68.792969 81.953125 68.035156 81.433594 67.273438 80.878906 L 64.902344 79.15625 L 66.347656 77.171875 L 76.960938 84.878906 L 75.472656 86.925781 L 68.726563 85.257813 L 65.253906 84.074219 C 66.335938 84.742188 67.382813 85.398438 68.402344 86.046875 C 69.417969 86.691406 70.226563 87.230469 70.820313 87.660156 L 73.515625 89.621094 L 72.089844 91.585938 Z M 77.164063 69.1875 L 75.097656 71.113281 L 82.722656 79.296875 L 80.9375 80.960938 L 73.308594 72.78125 L 71.21875 74.730469 L 69.898438 73.3125 L 75.84375 67.769531 Z M 79.410156 64.914063 L 83.292969 62.191406 C 85.203125 60.859375 86.769531 60.996094 87.996094 62.609375 C 88.566406 63.359375 88.871094 64.085938 88.914063 64.773438 C 88.960938 65.464844 88.71875 66.046875 88.1875 66.503906 C 88.632813 66.257813 89.03125 66.148438 89.386719 66.171875 C 89.742188 66.191406 90.039063 66.289063 90.285156 66.46875 C 90.53125 66.644531 90.742188 66.847656 90.929688 67.085938 C 91.113281 67.316406 91.316406 67.589844 91.535156 67.902344 C 92.066406 68.621094 92.570313 69.253906 93.039063 69.785156 C 93.519531 70.320313 93.84375 70.523438 94.027344 70.394531 L 94.164063 70.597656 L 91.851563 72.21875 C 91.621094 71.976563 91.332031 71.617188 90.964844 71.132813 C 90.597656 70.652344 90.28125 70.277344 90.011719 70.015625 L 89.496094 69.285156 C 89.140625 68.769531 88.769531 68.460938 88.386719 68.351563 C 88.007813 68.242188 87.472656 68.425781 86.785156 68.90625 L 85.730469 69.648438 L 88.949219 74.253906 L 86.9375 75.660156 Z M 83.996094 64.070313 L 82.539063 65.089844 L 84.609375 68.046875 L 86.007813 67.066406 C 86.445313 66.757813 86.679688 66.390625 86.710938 65.960938 C 86.742188 65.523438 86.605469 65.09375 86.308594 64.664063 C 85.941406 64.140625 85.582031 63.828125 85.234375 63.722656 C 84.882813 63.621094 84.472656 63.734375 83.996094 64.070313 Z M 102.464844 60.878906 C 102.960938 62.046875 103.285156 63.003906 103.4375 63.765625 C 103.589844 64.523438 103.488281 65.261719 103.132813 65.980469 C 102.78125 66.699219 102.035156 67.3125 100.898438 67.816406 C 99.171875 68.585938 97.90625 68.636719 97.089844 67.972656 C 96.273438 67.3125 95.484375 66.183594 94.726563 64.589844 L 94.609375 64.335938 L 93.9375 62.820313 C 93.929688 62.796875 93.914063 62.777344 93.910156 62.757813 C 93.898438 62.734375 93.859375 62.675781 93.789063 62.578125 C 93.710938 62.371094 93.609375 62.101563 93.476563 61.765625 C 93.347656 61.429688 93.199219 60.988281 93.039063 60.441406 C 92.878906 59.894531 92.773438 59.398438 92.71875 58.949219 C 92.664063 58.503906 92.664063 58.136719 92.714844 57.84375 C 92.933594 57.046875 93.246094 56.46875 93.648438 56.101563 C 94.054688 55.738281 94.585938 55.410156 95.242188 55.117188 C 96.402344 54.601563 97.394531 54.503906 98.21875 54.8125 C 99.042969 55.128906 99.703125 55.636719 100.191406 56.347656 C 100.683594 57.0625 101.152344 57.925781 101.605469 58.945313 Z M 95.464844 60.078125 L 97.394531 64.410156 C 98.078125 65.941406 98.96875 66.464844 100.074219 65.96875 C 101.121094 65.503906 101.3125 64.503906 100.628906 62.972656 L 98.785156 58.828125 C 98.546875 58.296875 98.203125 57.796875 97.746094 57.335938 C 97.289063 56.867188 96.742188 56.773438 96.101563 57.046875 C 95.554688 57.273438 95.230469 57.652344 95.121094 58.175781 C 95.019531 58.699219 95.132813 59.335938 95.464844 60.078125 Z M 105.097656 51.757813 L 107.453125 51.214844 L 109.980469 62.140625 L 114.433594 61.113281 L 114.863281 62.964844 L 108.046875 64.539063 Z M 121.960938 48.914063 L 128.886719 48.796875 L 128.914063 50.691406 L 124.414063 50.769531 L 124.476563 54.121094 L 128.699219 54.046875 L 128.730469 55.945313 L 124.511719 56.019531 L 124.613281 61.949219 L 122.191406 61.992188 Z M 141.121094 57.878906 C 140.945313 59.132813 140.726563 60.128906 140.464844 60.851563 C 140.203125 61.585938 139.738281 62.164063 139.066406 62.597656 C 138.390625 63.03125 137.4375 63.171875 136.203125 63.019531 C 134.328125 62.789063 133.21875 62.179688 132.859375 61.191406 C 132.496094 60.210938 132.402344 58.835938 132.574219 57.074219 L 132.609375 56.796875 L 132.808594 55.152344 C 132.8125 55.128906 132.816406 55.105469 132.816406 55.085938 C 132.820313 55.058594 132.816406 54.988281 132.808594 54.871094 C 132.847656 54.652344 132.898438 54.363281 132.953125 54.007813 C 133.019531 53.652344 133.121094 53.199219 133.265625 52.648438 C 133.410156 52.097656 133.574219 51.617188 133.757813 51.210938 C 133.945313 50.796875 134.132813 50.480469 134.324219 50.257813 C 134.921875 49.6875 135.488281 49.347656 136.023438 49.246094 C 136.554688 49.140625 137.179688 49.132813 137.898438 49.21875 C 139.15625 49.378906 140.058594 49.796875 140.605469 50.492188 C 141.152344 51.1875 141.453125 51.964844 141.503906 52.828125 C 141.558594 53.6875 141.515625 54.671875 141.378906 55.78125 Z M 135.53125 53.589844 L 134.953125 58.296875 C 134.746094 59.960938 135.246094 60.863281 136.449219 61.011719 C 137.589844 61.152344 138.265625 60.390625 138.46875 58.726563 L 139.019531 54.226563 C 139.09375 53.648438 139.050781 53.046875 138.902344 52.410156 C 138.746094 51.777344 138.328125 51.410156 137.640625 51.316406 C 137.050781 51.230469 136.578125 51.386719 136.21875 51.78125 C 135.859375 52.175781 135.632813 52.777344 135.53125 53.589844 Z M 147.800781 51.640625 L 152.3125 53.105469 C 154.523438 53.824219 155.355469 55.160156 154.808594 57.109375 C 154.550781 58.015625 154.160156 58.695313 153.632813 59.148438 C 153.105469 59.601563 152.496094 59.753906 151.816406 59.601563 C 152.273438 59.8125 152.601563 60.066406 152.796875 60.363281 C 152.996094 60.660156 153.097656 60.960938 153.101563 61.257813 C 153.109375 61.558594 153.074219 61.855469 152.996094 62.140625 C 152.925781 62.429688 152.828125 62.753906 152.703125 63.121094 C 152.453125 63.980469 152.257813 64.757813 152.113281 65.460938 C 151.972656 66.160156 152.007813 66.546875 152.214844 66.609375 L 152.140625 66.84375 L 149.453125 65.96875 C 149.511719 65.644531 149.621094 65.191406 149.785156 64.609375 C 149.949219 64.027344 150.058594 63.550781 150.105469 63.171875 L 150.378906 62.328125 C 150.574219 61.730469 150.601563 61.246094 150.453125 60.878906 C 150.316406 60.503906 149.84375 60.191406 149.050781 59.933594 L 147.820313 59.535156 L 146.085938 64.878906 L 143.746094 64.117188 Z M 151.234375 54.796875 L 149.539063 54.242188 L 148.425781 57.675781 L 150.050781 58.203125 C 150.558594 58.367188 150.996094 58.335938 151.359375 58.097656 C 151.722656 57.859375 151.988281 57.492188 152.148438 56.996094 C 152.347656 56.386719 152.382813 55.914063 152.253906 55.574219 C 152.121094 55.230469 151.785156 54.972656 151.234375 54.796875 Z M 168.144531 65.4375 C 168.929688 64.117188 169.007813 63.222656 168.382813 62.753906 C 167.453125 62.046875 166.535156 62.421875 165.628906 63.867188 L 163.246094 67.683594 C 162.722656 68.523438 162.449219 69.210938 162.425781 69.734375 C 162.40625 70.261719 162.617188 70.664063 163.058594 70.941406 C 163.539063 71.242188 163.988281 71.253906 164.398438 70.960938 C 164.808594 70.664063 165.296875 70.0625 165.863281 69.15625 L 167.949219 70.460938 C 167.453125 71.191406 166.984375 71.796875 166.554688 72.28125 C 166.121094 72.765625 165.523438 73.113281 164.761719 73.320313 C 163.996094 73.53125 163.140625 73.339844 162.183594 72.738281 C 161.269531 72.183594 160.644531 71.589844 160.300781 70.945313 C 159.960938 70.308594 159.886719 69.578125 160.085938 68.753906 C 160.285156 67.933594 160.742188 66.949219 161.453125 65.804688 L 162.632813 63.925781 C 163.425781 62.65625 164.152344 61.726563 164.816406 61.136719 C 165.476563 60.550781 166.160156 60.246094 166.859375 60.222656 C 167.558594 60.199219 168.351563 60.453125 169.242188 60.984375 C 170.472656 61.714844 171.128906 62.550781 171.203125 63.503906 C 171.28125 64.460938 170.945313 65.53125 170.199219 66.722656 Z M 176.929688 66.988281 L 180.402344 70.222656 C 182.101563 71.808594 182.289063 73.371094 180.972656 74.90625 C 180.355469 75.617188 179.710938 76.070313 179.039063 76.257813 C 178.371094 76.445313 177.761719 76.324219 177.203125 75.902344 C 177.53125 76.285156 177.722656 76.652344 177.773438 77.003906 C 177.828125 77.355469 177.789063 77.671875 177.671875 77.945313 C 177.550781 78.222656 177.394531 78.472656 177.203125 78.703125 C 177.015625 78.929688 176.789063 79.1875 176.527344 79.46875 C 175.933594 80.136719 175.425781 80.761719 174.996094 81.339844 C 174.578125 81.910156 174.445313 82.269531 174.605469 82.421875 L 174.441406 82.601563 L 172.371094 80.671875 C 172.5625 80.402344 172.851563 80.039063 173.246094 79.585938 C 173.644531 79.128906 173.945313 78.734375 174.144531 78.414063 L 174.753906 77.765625 C 175.179688 77.304688 175.410156 76.878906 175.4375 76.480469 C 175.464844 76.089844 175.171875 75.601563 174.558594 75.03125 L 173.613281 74.152344 L 169.785156 78.257813 L 167.984375 76.585938 Z M 178.710938 71.296875 L 177.410156 70.085938 L 174.945313 72.722656 L 176.199219 73.886719 C 176.589844 74.253906 176.996094 74.40625 177.429688 74.34375 C 177.859375 74.285156 178.253906 74.0625 178.609375 73.679688 C 179.046875 73.214844 179.277344 72.796875 179.304688 72.433594 C 179.335938 72.070313 179.136719 71.691406 178.710938 71.296875 Z M 186.703125 76.660156 L 188.246094 78.574219 L 178.054688 86.828125 L 176.507813 84.921875 Z M 190.683594 89.179688 C 191.949219 88.316406 192.402344 87.539063 192.035156 86.847656 C 191.492188 85.8125 190.496094 85.761719 189.066406 86.695313 L 185.289063 89.144531 C 184.464844 89.683594 183.929688 90.1875 183.6875 90.65625 C 183.441406 91.128906 183.464844 91.585938 183.746094 92.019531 C 184.058594 92.496094 184.460938 92.691406 184.953125 92.597656 C 185.449219 92.503906 186.148438 92.171875 187.039063 91.589844 L 188.382813 93.648438 C 187.621094 94.101563 186.945313 94.453125 186.347656 94.714844 C 185.753906 94.964844 185.0625 95.027344 184.285156 94.894531 C 183.507813 94.761719 182.808594 94.222656 182.195313 93.277344 C 181.601563 92.386719 181.285156 91.585938 181.246094 90.859375 C 181.203125 90.132813 181.449219 89.441406 181.976563 88.78125 C 182.503906 88.121094 183.335938 87.421875 184.464844 86.6875 L 186.324219 85.480469 C 187.578125 84.664063 188.636719 84.128906 189.484375 83.878906 C 190.328125 83.628906 191.078125 83.632813 191.722656 83.910156 C 192.363281 84.1875 192.976563 84.753906 193.5625 85.605469 C 194.371094 86.785156 194.605469 87.824219 194.273438 88.722656 C 193.941406 89.617188 193.183594 90.449219 192.003906 91.214844 Z M 197.960938 94.308594 L 198.871094 96.558594 L 193.46875 98.738281 L 193.496094 98.804688 C 194.3125 98.8125 195.050781 98.847656 195.710938 98.90625 C 196.367188 98.96875 197.191406 99.054688 198.183594 99.171875 C 199.175781 99.28125 199.785156 99.347656 200.007813 99.371094 L 201.039063 101.925781 L 194.589844 101.050781 L 188.929688 106.96875 L 187.898438 104.414063 L 191.84375 100.355469 L 190.1875 100.066406 L 186.703125 101.472656 L 185.800781 99.222656 Z M 202.367188 106.324219 L 204.03125 113.011719 L 202.152344 113.480469 L 201.078125 109.179688 L 197.867188 109.980469 L 198.851563 113.925781 L 197.003906 114.386719 L 196.023438 110.441406 L 192.078125 111.425781 L 193.148438 115.722656 L 191.304688 116.183594 L 189.636719 109.503906 Z M 203.390625 125.621094 L 203.140625 122.804688 L 192.003906 123.777344 L 191.789063 121.347656 L 202.929688 120.371094 L 202.679688 117.523438 L 204.609375 117.351563 L 205.316406 125.449219 Z M 204.617188 135.261719 L 204.316406 137.703125 L 191.296875 136.105469 L 191.597656 133.664063 Z M 203.578125 143.132813 L 202.914063 145.609375 L 196.128906 146.355469 L 192.121094 146.527344 C 194.191406 146.914063 195.664063 147.195313 196.550781 147.371094 C 197.4375 147.546875 198.328125 147.757813 199.242188 148.003906 L 202.074219 148.761719 L 201.4375 151.136719 L 188.765625 147.742188 L 189.421875 145.296875 L 196.316406 144.4375 L 199.984375 144.300781 C 198.734375 144.0625 197.519531 143.824219 196.335938 143.589844 C 195.15625 143.347656 194.210938 143.132813 193.503906 142.941406 L 190.285156 142.085938 L 190.910156 139.738281 Z M 197.378906 161.128906 L 196.261719 163.320313 L 184.574219 157.367188 L 185.691406 155.175781 Z M 193.679688 168.195313 L 192.203125 170.296875 L 185.570313 168.671875 L 181.753906 167.46875 C 183.558594 168.535156 184.851563 169.304688 185.621094 169.773438 C 186.394531 170.242188 187.164063 170.746094 187.9375 171.285156 L 190.335938 172.96875 L 188.925781 174.980469 L 178.179688 167.460938 L 179.632813 165.386719 L 186.40625 166.933594 L 189.898438 168.058594 C 188.804688 167.410156 187.746094 166.769531 186.714844 166.140625 C 185.6875 165.511719 184.871094 164.988281 184.273438 164.566406 L 181.539063 162.65625 L 182.933594 160.671875 Z M 185.269531 179.15625 L 182.058594 182.601563 C 181.136719 183.589844 180.101563 183.957031 178.953125 183.691406 C 177.804688 183.429688 176.382813 182.4375 174.683594 180.714844 C 173.953125 179.964844 173.367188 179.339844 172.933594 178.832031 C 172.496094 178.320313 172.140625 177.785156 171.847656 177.21875 C 171.554688 176.652344 171.445313 176.070313 171.507813 175.472656 C 171.574219 174.878906 171.886719 174.277344 172.441406 173.679688 L 175.675781 170.214844 Z M 182.175781 179.636719 L 175.390625 173.308594 L 174.507813 174.253906 C 174.066406 174.726563 173.871094 175.203125 173.933594 175.671875 C 173.996094 176.144531 174.238281 176.628906 174.660156 177.121094 C 175.078125 177.617188 175.730469 178.261719 176.613281 179.050781 C 177.828125 180.152344 178.753906 180.855469 179.390625 181.152344 C 180.027344 181.457031 180.566406 181.363281 181.011719 180.886719 Z M 175.386719 188.433594 L 173.476563 189.980469 L 165.222656 179.785156 L 167.132813 178.238281 Z M 166.890625 194.332031 L 164.003906 195.996094 L 154.910156 186.101563 L 157.191406 184.78125 L 159.367188 187.335938 L 161.84375 185.902344 L 160.785156 182.710938 L 163.019531 181.417969 Z M 160.691406 188.828125 L 163.570313 192.238281 L 164.753906 193.871094 L 164.78125 193.855469 L 163.945313 192.019531 L 162.519531 187.769531 Z M 160.691406 188.828125 "/>
<path style=" stroke:none;fill-rule:evenodd;fill:rgb(84.375%,70.117188%,41.184998%);fill-opacity:1;" d="M 135.492188 68.597656 C 137.023438 68.753906 138.144531 70.132813 137.984375 71.664063 C 137.828125 73.195313 136.449219 74.3125 134.914063 74.15625 C 133.386719 73.996094 132.269531 72.621094 132.425781 71.089844 C 132.585938 69.558594 133.960938 68.4375 135.492188 68.597656 Z M 126.800781 67.949219 C 128.339844 67.949219 129.59375 69.210938 129.59375 70.746094 C 129.59375 72.285156 128.339844 73.539063 126.800781 73.539063 C 125.261719 73.539063 124.003906 72.285156 124.003906 70.746094 C 124.003906 69.210938 125.261719 67.949219 126.800781 67.949219 Z M 118.109375 68.59375 C 119.640625 68.441406 121.015625 69.5625 121.171875 71.09375 C 121.328125 72.628906 120.203125 74.003906 118.675781 74.15625 C 117.144531 74.3125 115.769531 73.191406 115.613281 71.660156 C 115.453125 70.128906 116.578125 68.753906 118.109375 68.59375 Z M 109.472656 70.550781 C 110.964844 70.164063 112.492188 71.0625 112.878906 72.554688 C 113.265625 74.046875 112.367188 75.574219 110.871094 75.964844 C 109.386719 76.34375 107.855469 75.445313 107.46875 73.953125 C 107.078125 72.464844 107.984375 70.933594 109.472656 70.550781 Z M 101.113281 73.835938 C 102.496094 73.160156 104.175781 73.742188 104.847656 75.128906 C 105.519531 76.511719 104.9375 78.1875 103.550781 78.859375 C 102.164063 79.53125 100.488281 78.949219 99.816406 77.5625 C 99.144531 76.179688 99.726563 74.503906 101.113281 73.835938 Z M 93.472656 78.269531 C 94.746094 77.402344 96.488281 77.734375 97.355469 79.007813 C 98.21875 80.28125 97.886719 82.027344 96.613281 82.890625 C 95.339844 83.757813 93.597656 83.421875 92.730469 82.152344 C 91.867188 80.878906 92.199219 79.132813 93.472656 78.269531 Z M 86.574219 83.785156 C 87.710938 82.746094 89.484375 82.824219 90.523438 83.964844 C 91.5625 85.097656 91.484375 86.871094 90.347656 87.90625 C 89.210938 88.945313 87.4375 88.867188 86.398438 87.734375 C 85.359375 86.597656 85.4375 84.824219 86.574219 83.785156 Z M 80.566406 90.253906 C 81.539063 89.0625 83.304688 88.886719 84.496094 89.863281 C 85.6875 90.839844 85.863281 92.601563 84.890625 93.796875 C 83.914063 94.984375 82.148438 95.164063 80.957031 94.1875 C 79.765625 93.214844 79.589844 91.445313 80.566406 90.253906 Z M 75.574219 97.546875 C 76.367188 96.222656 78.089844 95.796875 79.40625 96.589844 C 80.726563 97.378906 81.15625 99.101563 80.363281 100.421875 C 79.574219 101.738281 77.851563 102.171875 76.53125 101.378906 C 75.210938 100.589844 74.78125 98.863281 75.574219 97.546875 Z M 71.714844 105.496094 C 72.304688 104.074219 73.945313 103.398438 75.367188 103.988281 C 76.789063 104.578125 77.46875 106.21875 76.878906 107.636719 C 76.289063 109.058594 74.648438 109.738281 73.226563 109.148438 C 71.804688 108.558594 71.121094 106.921875 71.714844 105.496094 Z M 69.09375 113.945313 C 69.464844 112.449219 70.984375 111.535156 72.476563 111.90625 C 73.972656 112.277344 74.886719 113.796875 74.515625 115.296875 C 74.144531 116.785156 72.621094 117.699219 71.132813 117.328125 C 69.636719 116.960938 68.722656 115.4375 69.09375 113.945313 Z M 67.765625 122.699219 C 67.90625 121.171875 69.269531 120.03125 70.796875 120.171875 C 72.335938 120.308594 73.472656 121.671875 73.332031 123.203125 C 73.195313 124.738281 71.828125 125.878906 70.292969 125.734375 C 68.765625 125.59375 67.628906 124.230469 67.765625 122.699219 Z M 67.761719 131.558594 C 67.664063 130.019531 68.835938 128.6875 70.371094 128.59375 C 71.910156 128.496094 73.242188 129.671875 73.339844 131.203125 C 73.433594 132.738281 72.261719 134.070313 70.726563 134.171875 C 69.191406 134.265625 67.859375 133.09375 67.761719 131.558594 Z M 69.074219 140.3125 C 68.746094 138.808594 69.703125 137.316406 71.203125 136.984375 C 72.707031 136.65625 74.203125 137.613281 74.53125 139.113281 C 74.863281 140.617188 73.90625 142.113281 72.402344 142.441406 C 70.898438 142.773438 69.40625 141.816406 69.074219 140.3125 Z M 71.6875 148.765625 C 71.136719 147.328125 71.859375 145.710938 73.292969 145.15625 C 74.734375 144.605469 76.355469 145.328125 76.90625 146.765625 C 77.457031 148.203125 76.734375 149.824219 75.292969 150.378906 C 73.859375 150.925781 72.238281 150.203125 71.6875 148.765625 Z M 75.535156 156.722656 C 74.777344 155.382813 75.253906 153.671875 76.59375 152.921875 C 77.9375 152.160156 79.644531 152.636719 80.402344 153.980469 C 81.15625 155.320313 80.679688 157.027344 79.339844 157.785156 C 77.996094 158.539063 76.289063 158.0625 75.535156 156.722656 Z M 80.515625 164.015625 C 79.574219 162.800781 79.796875 161.039063 81.015625 160.097656 C 82.234375 159.15625 83.996094 159.382813 84.9375 160.597656 C 85.878906 161.816406 85.652344 163.578125 84.4375 164.515625 C 83.21875 165.464844 81.457031 165.234375 80.515625 164.015625 Z M 86.519531 170.496094 C 85.410156 169.425781 85.382813 167.652344 86.449219 166.542969 C 87.519531 165.4375 89.289063 165.40625 90.402344 166.476563 C 91.507813 167.546875 91.539063 169.320313 90.46875 170.425781 C 89.398438 171.535156 87.621094 171.5625 86.519531 170.496094 Z M 93.40625 176.019531 C 92.160156 175.121094 91.871094 173.367188 92.773438 172.121094 C 93.671875 170.871094 95.421875 170.589844 96.671875 171.484375 C 97.917969 172.386719 98.207031 174.136719 97.308594 175.386719 C 96.40625 176.636719 94.65625 176.917969 93.40625 176.019531 Z M 101.039063 180.46875 C 99.679688 179.757813 99.140625 178.066406 99.851563 176.703125 C 100.558594 175.339844 102.246094 174.800781 103.617188 175.507813 C 104.984375 176.214844 105.519531 177.90625 104.808594 179.273438 C 104.101563 180.640625 102.410156 181.175781 101.039063 180.46875 Z M 109.398438 183.761719 C 107.921875 183.339844 107.0625 181.785156 107.488281 180.304688 C 107.914063 178.832031 109.46875 177.96875 110.945313 178.394531 C 112.425781 178.820313 113.285156 180.378906 112.855469 181.851563 C 112.429688 183.335938 110.878906 184.191406 109.398438 183.761719 Z M 118.03125 185.726563 C 116.503906 185.53125 115.421875 184.128906 115.621094 182.597656 C 115.816406 181.078125 117.222656 179.988281 118.746094 180.1875 C 120.277344 180.386719 121.359375 181.789063 121.160156 183.316406 C 120.964844 184.84375 119.558594 185.925781 118.03125 185.726563 Z M 126.726563 186.382813 C 125.1875 186.339844 123.964844 185.054688 124.003906 183.515625 C 124.046875 181.976563 125.328125 180.753906 126.871094 180.796875 C 128.410156 180.839844 129.628906 182.128906 129.589844 183.660156 C 129.550781 185.203125 128.261719 186.421875 126.726563 186.382813 Z M 135.558594 185.730469 C 134.035156 185.925781 132.628906 184.839844 132.433594 183.3125 C 132.238281 181.789063 133.324219 180.382813 134.847656 180.1875 C 136.371094 179.992188 137.78125 181.078125 137.976563 182.601563 C 138.171875 184.128906 137.085938 185.53125 135.558594 185.730469 Z M 144.191406 183.765625 C 142.714844 184.1875 141.160156 183.332031 140.738281 181.851563 C 140.3125 180.371094 141.171875 178.820313 142.652344 178.394531 C 144.128906 177.96875 145.683594 178.832031 146.109375 180.308594 C 146.53125 181.789063 145.671875 183.339844 144.191406 183.765625 Z M 152.546875 180.46875 C 151.183594 181.175781 149.492188 180.636719 148.785156 179.273438 C 148.078125 177.90625 148.613281 176.214844 149.980469 175.507813 C 151.347656 174.800781 153.039063 175.339844 153.746094 176.707031 C 154.453125 178.070313 153.914063 179.761719 152.546875 180.46875 Z M 160.183594 176.023438 C 158.9375 176.921875 157.183594 176.632813 156.285156 175.382813 C 155.386719 174.136719 155.675781 172.382813 156.921875 171.484375 C 158.171875 170.589844 159.925781 170.878906 160.824219 172.128906 C 161.722656 173.371094 161.433594 175.128906 160.183594 176.023438 Z M 167.074219 170.503906 C 165.96875 171.566406 164.191406 171.535156 163.121094 170.425781 C 162.054688 169.316406 162.089844 167.542969 163.195313 166.476563 C 164.304688 165.40625 166.078125 165.441406 167.148438 166.546875 C 168.214844 167.65625 168.183594 169.429688 167.074219 170.503906 Z M 173.078125 164.019531 C 172.132813 165.238281 170.371094 165.464844 169.15625 164.515625 C 167.941406 163.578125 167.71875 161.8125 168.660156 160.597656 C 169.605469 159.378906 171.363281 159.15625 172.578125 160.101563 C 173.796875 161.042969 174.019531 162.804688 173.078125 164.019531 Z M 178.058594 156.726563 C 177.300781 158.066406 175.59375 158.542969 174.253906 157.785156 C 172.914063 157.027344 172.4375 155.316406 173.195313 153.976563 C 173.953125 152.636719 175.664063 152.164063 177.003906 152.921875 C 178.34375 153.679688 178.816406 155.386719 178.058594 156.726563 Z M 181.90625 148.769531 C 181.355469 150.210938 179.734375 150.925781 178.296875 150.378906 C 176.859375 149.820313 176.140625 148.199219 176.691406 146.761719 C 177.246094 145.328125 178.867188 144.605469 180.304688 145.160156 C 181.738281 145.714844 182.460938 147.335938 181.90625 148.769531 Z M 184.519531 140.316406 C 184.1875 141.820313 182.691406 142.777344 181.191406 142.445313 C 179.6875 142.113281 178.734375 140.617188 179.066406 139.113281 C 179.394531 137.609375 180.890625 136.65625 182.394531 136.988281 C 183.898438 137.320313 184.851563 138.816406 184.519531 140.316406 Z M 185.835938 131.5625 C 185.734375 133.097656 184.402344 134.269531 182.867188 134.171875 C 181.328125 134.070313 180.160156 132.738281 180.257813 131.203125 C 180.359375 129.671875 181.691406 128.496094 183.226563 128.59375 C 184.761719 128.691406 185.933594 130.027344 185.835938 131.5625 Z M 185.828125 122.703125 C 185.96875 124.238281 184.828125 125.597656 183.296875 125.738281 C 181.765625 125.878906 180.402344 124.734375 180.265625 123.203125 C 180.128906 121.671875 181.265625 120.308594 182.796875 120.171875 C 184.328125 120.035156 185.691406 121.171875 185.828125 122.703125 Z M 184.503906 113.949219 C 184.871094 115.445313 183.953125 116.964844 182.464844 117.335938 C 180.96875 117.699219 179.449219 116.785156 179.078125 115.289063 C 178.710938 113.796875 179.628906 112.277344 181.121094 111.90625 C 182.617188 111.539063 184.136719 112.460938 184.503906 113.949219 Z M 181.882813 105.503906 C 182.46875 106.921875 181.789063 108.5625 180.367188 109.152344 C 178.945313 109.738281 177.308594 109.058594 176.71875 107.636719 C 176.128906 106.214844 176.8125 104.574219 178.234375 103.988281 C 179.65625 103.398438 181.289063 104.078125 181.882813 105.503906 Z M 178.027344 97.546875 C 178.816406 98.867188 178.382813 100.589844 177.0625 101.378906 C 175.742188 102.171875 174.023438 101.738281 173.230469 100.421875 C 172.441406 99.097656 172.871094 97.378906 174.191406 96.589844 C 175.515625 95.796875 177.234375 96.226563 178.027344 97.546875 Z M 173.035156 90.257813 C 174.007813 91.453125 173.828125 93.21875 172.636719 94.191406 C 171.445313 95.164063 169.679688 94.984375 168.703125 93.796875 C 167.734375 92.601563 167.910156 90.839844 169.105469 89.863281 C 170.296875 88.886719 172.0625 89.066406 173.035156 90.257813 Z M 167.027344 83.789063 C 168.160156 84.828125 168.238281 86.601563 167.195313 87.734375 C 166.15625 88.871094 164.382813 88.945313 163.246094 87.90625 C 162.113281 86.867188 162.039063 85.09375 163.078125 83.960938 C 164.117188 82.824219 165.890625 82.746094 167.027344 83.789063 Z M 160.128906 78.273438 C 161.402344 79.136719 161.730469 80.882813 160.863281 82.15625 C 159.996094 83.425781 158.253906 83.757813 156.980469 82.890625 C 155.710938 82.023438 155.378906 80.277344 156.246094 79.007813 C 157.113281 77.734375 158.859375 77.40625 160.128906 78.273438 Z M 152.488281 73.835938 C 153.871094 74.503906 154.453125 76.183594 153.78125 77.566406 C 153.105469 78.953125 151.429688 79.53125 150.046875 78.859375 C 148.660156 78.1875 148.078125 76.507813 148.753906 75.128906 C 149.425781 73.738281 151.105469 73.160156 152.488281 73.835938 Z M 144.128906 70.550781 C 145.617188 70.9375 146.515625 72.46875 146.128906 73.960938 C 145.742188 75.449219 144.210938 76.347656 142.71875 75.960938 C 141.230469 75.570313 140.328125 74.039063 140.71875 72.550781 C 141.109375 71.0625 142.636719 70.164063 144.128906 70.550781 Z M 144.128906 70.550781 "/>
<path style=" stroke:none;fill-rule:evenodd;fill:rgb(84.375%,70.117188%,41.184998%);fill-opacity:1;" d="M 135.871094 36.566406 C 137.410156 36.648438 138.597656 37.96875 138.515625 39.507813 C 138.433594 41.046875 137.113281 42.230469 135.578125 42.148438 C 134.039063 42.066406 132.855469 40.746094 132.9375 39.210938 C 133.019531 37.671875 134.335938 36.484375 135.871094 36.566406 Z M 118.011719 36.574219 C 119.546875 36.652344 120.734375 37.964844 120.65625 39.503906 C 120.578125 41.03125 119.265625 42.21875 117.730469 42.140625 C 116.199219 42.0625 115.011719 40.753906 115.089844 39.214844 C 115.164063 37.683594 116.480469 36.496094 118.011719 36.574219 Z M 126.796875 36.113281 C 128.339844 36.113281 129.59375 37.367188 129.59375 38.90625 C 129.59375 40.445313 128.339844 41.699219 126.800781 41.699219 C 125.257813 41.699219 124.003906 40.445313 124.003906 38.90625 C 124.003906 37.367188 125.257813 36.113281 126.796875 36.113281 Z M 108.746094 37.9375 C 110.277344 37.777344 111.648438 38.894531 111.808594 40.421875 C 111.96875 41.949219 110.851563 43.320313 109.324219 43.480469 C 107.796875 43.636719 106.421875 42.523438 106.265625 40.996094 C 106.105469 39.46875 107.222656 38.09375 108.746094 37.9375 Z M 99.820313 40.230469 C 101.320313 39.921875 102.800781 40.886719 103.113281 42.390625 C 103.425781 43.894531 102.453125 45.378906 100.953125 45.6875 C 99.453125 46.003906 97.972656 45.03125 97.660156 43.527344 C 97.347656 42.023438 98.316406 40.546875 99.820313 40.230469 Z M 91.167969 43.425781 C 92.636719 42.964844 94.207031 43.777344 94.664063 45.242188 C 95.132813 46.710938 94.316406 48.277344 92.851563 48.738281 C 91.390625 49.199219 89.820313 48.382813 89.355469 46.921875 C 88.894531 45.460938 89.710938 43.886719 91.167969 43.425781 Z M 82.902344 47.480469 C 84.3125 46.878906 85.953125 47.53125 86.558594 48.941406 C 87.164063 50.351563 86.507813 51.992188 85.101563 52.597656 C 83.691406 53.203125 82.042969 52.546875 81.441406 51.140625 C 80.835938 49.730469 81.492188 48.089844 82.902344 47.480469 Z M 75.082031 52.347656 C 76.421875 51.605469 78.121094 52.097656 78.867188 53.441406 C 79.609375 54.78125 79.117188 56.480469 77.773438 57.222656 C 76.429688 57.964844 74.730469 57.472656 73.992188 56.128906 C 73.246094 54.789063 73.738281 53.089844 75.082031 52.347656 Z M 67.789063 57.972656 C 69.058594 57.101563 70.792969 57.425781 71.664063 58.6875 C 72.535156 59.953125 72.210938 61.691406 70.949219 62.5625 C 69.683594 63.429688 67.945313 63.109375 67.074219 61.84375 C 66.207031 60.578125 66.53125 58.839844 67.789063 57.972656 Z M 61.105469 64.296875 C 62.277344 63.308594 64.039063 63.460938 65.027344 64.632813 C 66.015625 65.804688 65.863281 67.566406 64.691406 68.554688 C 63.515625 69.546875 61.753906 69.390625 60.765625 68.21875 C 59.777344 67.046875 59.929688 65.28125 61.105469 64.296875 Z M 55.078125 71.253906 C 56.148438 70.15625 57.914063 70.136719 59.015625 71.210938 C 60.113281 72.277344 60.132813 74.046875 59.0625 75.144531 C 57.988281 76.242188 56.222656 76.261719 55.121094 75.191406 C 54.027344 74.121094 54.007813 72.351563 55.078125 71.253906 Z M 49.777344 78.78125 C 50.734375 77.589844 52.492188 77.390625 53.6875 78.351563 C 54.886719 79.308594 55.082031 81.066406 54.121094 82.261719 C 53.164063 83.464844 51.40625 83.652344 50.207031 82.695313 C 49.011719 81.738281 48.816406 79.980469 49.777344 78.78125 Z M 45.257813 86.808594 C 46.09375 85.523438 47.820313 85.15625 49.109375 85.992188 C 50.394531 86.824219 50.761719 88.554688 49.921875 89.839844 C 49.089844 91.128906 47.359375 91.496094 46.074219 90.660156 C 44.789063 89.824219 44.417969 88.09375 45.257813 86.808594 Z M 41.570313 95.253906 C 42.273438 93.890625 43.957031 93.351563 45.320313 94.054688 C 46.683594 94.757813 47.222656 96.441406 46.519531 97.804688 C 45.816406 99.171875 44.132813 99.703125 42.769531 99.003906 C 41.40625 98.300781 40.867188 96.613281 41.570313 95.253906 Z M 38.765625 104.03125 C 39.324219 102.605469 40.945313 101.898438 42.371094 102.464844 C 43.796875 103.023438 44.503906 104.644531 43.945313 106.070313 C 43.382813 107.496094 41.761719 108.203125 40.335938 107.640625 C 38.910156 107.085938 38.203125 105.464844 38.765625 104.03125 Z M 36.835938 113.191406 C 37.167969 111.699219 38.664063 110.753906 40.164063 111.089844 C 41.660156 111.425781 42.605469 112.921875 42.265625 114.421875 C 41.929688 115.914063 40.4375 116.855469 38.941406 116.519531 C 37.445313 116.183594 36.496094 114.6875 36.835938 113.191406 Z M 35.886719 122.371094 C 36.066406 120.847656 37.457031 119.753906 38.976563 119.933594 C 40.496094 120.113281 41.59375 121.503906 41.414063 123.023438 C 41.234375 124.546875 39.847656 125.640625 38.324219 125.464844 C 36.804688 125.28125 35.707031 123.894531 35.886719 122.371094 Z M 35.871094 131.460938 C 35.972656 129.929688 37.296875 128.761719 38.828125 128.859375 C 40.359375 128.960938 41.527344 130.285156 41.429688 131.8125 C 41.332031 133.34375 40.003906 134.511719 38.472656 134.414063 C 36.945313 134.316406 35.777344 132.988281 35.871094 131.460938 Z M 36.769531 140.640625 C 36.710938 139.109375 37.910156 137.808594 39.441406 137.746094 C 40.972656 137.6875 42.269531 138.886719 42.332031 140.421875 C 42.394531 141.949219 41.195313 143.246094 39.664063 143.308594 C 38.132813 143.371094 36.832031 142.171875 36.769531 140.640625 Z M 38.621094 149.816406 C 38.328125 148.3125 39.316406 146.847656 40.820313 146.550781 C 42.324219 146.257813 43.789063 147.246094 44.085938 148.753906 C 44.378906 150.253906 43.390625 151.71875 41.886719 152.011719 C 40.382813 152.308594 38.914063 151.320313 38.621094 149.816406 Z M 41.382813 158.613281 C 40.9375 157.148438 41.769531 155.589844 43.238281 155.144531 C 44.703125 154.703125 46.261719 155.53125 46.707031 156.996094 C 47.152344 158.464844 46.320313 160.023438 44.851563 160.46875 C 43.386719 160.914063 41.828125 160.082031 41.382813 158.613281 Z M 45.023438 167.082031 C 44.433594 165.664063 45.105469 164.03125 46.519531 163.441406 C 47.933594 162.851563 49.570313 163.523438 50.160156 164.9375 C 50.746094 166.351563 50.074219 167.988281 48.660156 168.582031 C 47.246094 169.167969 45.613281 168.492188 45.023438 167.082031 Z M 49.496094 175.128906 C 48.773438 173.78125 49.28125 172.089844 50.628906 171.359375 C 51.980469 170.636719 53.667969 171.144531 54.398438 172.492188 C 55.121094 173.839844 54.617188 175.535156 53.265625 176.261719 C 51.914063 176.988281 50.226563 176.480469 49.496094 175.128906 Z M 54.761719 182.6875 C 53.90625 181.414063 54.246094 179.679688 55.515625 178.828125 C 56.789063 177.96875 58.523438 178.308594 59.378906 179.585938 C 60.234375 180.851563 59.894531 182.589844 58.621094 183.441406 C 57.347656 184.296875 55.613281 183.960938 54.761719 182.6875 Z M 60.746094 189.679688 C 59.773438 188.496094 59.945313 186.738281 61.121094 185.761719 C 62.308594 184.789063 64.066406 184.960938 65.039063 186.136719 C 66.015625 187.320313 65.847656 189.082031 64.664063 190.054688 C 63.484375 191.03125 61.722656 190.859375 60.746094 189.679688 Z M 67.40625 196.039063 C 66.320313 194.960938 66.316406 193.1875 67.398438 192.101563 C 68.480469 191.019531 70.246094 191.015625 71.335938 192.097656 C 72.414063 193.179688 72.417969 194.945313 71.339844 196.03125 C 70.257813 197.117188 68.492188 197.121094 67.40625 196.039063 Z M 74.664063 201.707031 C 73.480469 200.730469 73.304688 198.972656 74.273438 197.785156 C 75.246094 196.601563 77.003906 196.425781 78.191406 197.394531 C 79.371094 198.367188 79.546875 200.128906 78.582031 201.308594 C 77.609375 202.496094 75.851563 202.671875 74.664063 201.707031 Z M 82.457031 206.609375 C 81.183594 205.761719 80.835938 204.027344 81.683594 202.753906 C 82.53125 201.476563 84.265625 201.128906 85.539063 201.976563 C 86.816406 202.832031 87.164063 204.558594 86.316406 205.839844 C 85.46875 207.113281 83.734375 207.464844 82.457031 206.609375 Z M 90.707031 210.714844 C 89.355469 209.992188 88.835938 208.300781 89.554688 206.953125 C 90.273438 205.59375 91.960938 205.078125 93.316406 205.792969 C 94.667969 206.511719 95.1875 208.207031 94.46875 209.554688 C 93.753906 210.910156 92.0625 211.429688 90.707031 210.714844 Z M 99.335938 213.957031 C 97.914063 213.378906 97.230469 211.746094 97.808594 210.328125 C 98.386719 208.90625 100.015625 208.21875 101.4375 208.796875 C 102.855469 209.378906 103.539063 211.003906 102.964844 212.425781 C 102.386719 213.84375 100.753906 214.53125 99.335938 213.957031 Z M 108.253906 216.296875 C 106.785156 215.867188 105.933594 214.316406 106.367188 212.84375 C 106.796875 211.378906 108.347656 210.523438 109.816406 210.960938 C 111.289063 211.386719 112.136719 212.9375 111.703125 214.40625 C 111.277344 215.878906 109.726563 216.726563 108.253906 216.296875 Z M 117.507813 217.734375 C 115.988281 217.535156 114.914063 216.132813 115.113281 214.613281 C 115.3125 213.09375 116.714844 212.019531 118.234375 212.21875 C 119.753906 212.417969 120.828125 213.820313 120.628906 215.339844 C 120.429688 216.859375 119.027344 217.933594 117.507813 217.734375 Z M 126.578125 218.207031 C 125.054688 218.085938 123.90625 216.742188 124.023438 215.214844 C 124.140625 213.683594 125.484375 212.535156 127.011719 212.652344 C 128.539063 212.773438 129.691406 214.113281 129.574219 215.644531 C 129.453125 217.171875 128.109375 218.320313 126.578125 218.207031 Z M 135.800781 217.757813 C 134.269531 217.800781 132.984375 216.585938 132.941406 215.050781 C 132.902344 213.519531 134.117188 212.234375 135.648438 212.195313 C 137.183594 212.152344 138.464844 213.371094 138.507813 214.902344 C 138.546875 216.433594 137.328125 217.71875 135.800781 217.757813 Z M 145.0625 216.363281 C 143.554688 216.640625 142.097656 215.632813 141.824219 214.128906 C 141.546875 212.617188 142.550781 211.164063 144.058594 210.890625 C 145.566406 210.613281 147.023438 211.617188 147.296875 213.128906 C 147.574219 214.632813 146.570313 216.089844 145.0625 216.363281 Z M 153.988281 214.046875 C 152.515625 214.476563 150.964844 213.628906 150.539063 212.152344 C 150.109375 210.679688 150.960938 209.128906 152.433594 208.707031 C 153.90625 208.273438 155.453125 209.128906 155.882813 210.597656 C 156.308594 212.070313 155.460938 213.621094 153.988281 214.046875 Z M 162.621094 210.835938 C 161.203125 211.40625 159.578125 210.714844 159.003906 209.292969 C 158.429688 207.871094 159.121094 206.246094 160.539063 205.671875 C 161.964844 205.097656 163.589844 205.789063 164.164063 207.214844 C 164.738281 208.632813 164.046875 210.257813 162.621094 210.835938 Z M 170.890625 206.757813 C 169.53125 207.472656 167.84375 206.945313 167.132813 205.589844 C 166.414063 204.230469 166.945313 202.542969 168.304688 201.835938 C 169.660156 201.117188 171.347656 201.644531 172.0625 203.003906 C 172.773438 204.359375 172.246094 206.046875 170.890625 206.757813 Z M 178.699219 201.878906 C 177.414063 202.71875 175.6875 202.359375 174.84375 201.082031 C 173.996094 199.796875 174.359375 198.066406 175.636719 197.222656 C 176.914063 196.382813 178.652344 196.738281 179.492188 198.019531 C 180.335938 199.300781 179.980469 201.03125 178.699219 201.878906 Z M 185.976563 196.234375 C 184.785156 197.195313 183.023438 197.011719 182.0625 195.816406 C 181.097656 194.628906 181.285156 192.867188 182.476563 191.902344 C 183.664063 190.9375 185.425781 191.128906 186.390625 192.316406 C 187.355469 193.511719 187.164063 195.269531 185.976563 196.234375 Z M 192.652344 189.894531 C 191.558594 190.96875 189.789063 190.957031 188.714844 189.863281 C 187.640625 188.769531 187.65625 187.003906 188.746094 185.925781 C 189.839844 184.847656 191.609375 184.863281 192.683594 185.960938 C 193.761719 187.050781 193.746094 188.816406 192.652344 189.894531 Z M 198.664063 182.917969 C 197.683594 184.097656 195.921875 184.253906 194.742188 183.273438 C 193.566406 182.289063 193.40625 180.527344 194.390625 179.351563 C 195.371094 178.171875 197.136719 178.015625 198.3125 178.996094 C 199.488281 179.980469 199.648438 181.742188 198.664063 182.917969 Z M 203.949219 175.378906 C 203.085938 176.648438 201.347656 176.976563 200.078125 176.113281 C 198.8125 175.253906 198.484375 173.511719 199.347656 172.246094 C 200.210938 170.976563 201.945313 170.648438 203.214844 171.507813 C 204.484375 172.371094 204.8125 174.109375 203.949219 175.378906 Z M 208.453125 167.34375 C 207.71875 168.6875 206.019531 169.1875 204.675781 168.460938 C 203.328125 167.722656 202.828125 166.023438 203.558594 164.679688 C 204.289063 163.335938 205.992188 162.835938 207.339844 163.5625 C 208.683594 164.296875 209.1875 165.996094 208.453125 167.34375 Z M 212.117188 158.886719 C 211.523438 160.300781 209.886719 160.96875 208.472656 160.378906 C 207.058594 159.777344 206.390625 158.140625 206.984375 156.726563 C 207.578125 155.3125 209.21875 154.644531 210.632813 155.238281 C 212.046875 155.839844 212.714844 157.472656 212.117188 158.886719 Z M 214.90625 150.097656 C 214.453125 151.566406 212.894531 152.394531 211.425781 151.945313 C 209.960938 151.496094 209.128906 149.933594 209.578125 148.46875 C 210.027344 147.003906 211.589844 146.171875 213.058594 146.621094 C 214.523438 147.070313 215.355469 148.632813 214.90625 150.097656 Z M 216.800781 140.929688 C 216.578125 142.449219 215.164063 143.507813 213.644531 143.285156 C 212.121094 143.066406 211.066406 141.648438 211.289063 140.128906 C 211.507813 138.609375 212.925781 137.550781 214.445313 137.773438 C 215.964844 137.992188 217.023438 139.410156 216.800781 140.929688 Z M 217.730469 131.746094 C 217.664063 133.28125 216.367188 134.480469 214.835938 134.421875 C 213.300781 134.359375 212.101563 133.058594 212.160156 131.527344 C 212.222656 129.992188 213.523438 128.796875 215.054688 128.851563 C 216.589844 128.914063 217.789063 130.214844 217.730469 131.746094 Z M 217.730469 122.660156 C 217.753906 124.195313 216.519531 125.464844 214.984375 125.484375 C 213.449219 125.503906 212.179688 124.269531 212.160156 122.734375 C 212.136719 121.203125 213.371094 119.933594 214.90625 119.910156 C 216.441406 119.890625 217.710938 121.128906 217.730469 122.660156 Z M 216.8125 113.480469 C 216.992188 115.003906 215.898438 116.394531 214.371094 116.574219 C 212.847656 116.753906 211.453125 115.65625 211.277344 114.132813 C 211.097656 112.609375 212.191406 111.21875 213.71875 111.039063 C 215.242188 110.859375 216.632813 111.953125 216.8125 113.480469 Z M 214.929688 104.304688 C 215.339844 105.785156 214.46875 107.328125 212.988281 107.738281 C 211.507813 108.148438 209.96875 107.277344 209.554688 105.796875 C 209.144531 104.316406 210.015625 102.777344 211.496094 102.367188 C 212.976563 101.953125 214.519531 102.828125 214.929688 104.304688 Z M 212.148438 95.515625 C 212.703125 96.945313 211.996094 98.566406 210.566406 99.128906 C 209.132813 99.683594 207.511719 98.972656 206.953125 97.546875 C 206.394531 96.113281 207.105469 94.492188 208.539063 93.933594 C 209.96875 93.378906 211.589844 94.089844 212.148438 95.515625 Z M 208.488281 87.054688 C 209.1875 88.425781 208.640625 90.109375 207.273438 90.808594 C 205.90625 91.507813 204.222656 90.964844 203.523438 89.59375 C 202.824219 88.226563 203.371094 86.546875 204.738281 85.84375 C 206.105469 85.144531 207.789063 85.6875 208.488281 87.054688 Z M 203.992188 79.015625 C 204.824219 80.308594 204.449219 82.039063 203.15625 82.871094 C 201.863281 83.699219 200.132813 83.324219 199.300781 82.03125 C 198.472656 80.738281 198.847656 79.007813 200.140625 78.175781 C 201.433594 77.347656 203.164063 77.722656 203.992188 79.015625 Z M 198.714844 71.46875 C 199.664063 72.671875 199.464844 74.433594 198.257813 75.386719 C 197.054688 76.339844 195.289063 76.136719 194.339844 74.929688 C 193.386719 73.726563 193.59375 71.964844 194.796875 71.011719 C 195.996094 70.058594 197.761719 70.265625 198.714844 71.46875 Z M 192.703125 64.488281 C 193.773438 65.59375 193.742188 67.367188 192.636719 68.433594 C 191.53125 69.503906 189.757813 69.46875 188.691406 68.363281 C 187.621094 67.253906 187.65625 65.484375 188.765625 64.421875 C 189.871094 63.351563 191.640625 63.382813 192.703125 64.488281 Z M 186.035156 58.144531 C 187.203125 59.140625 187.347656 60.90625 186.347656 62.078125 C 185.351563 63.246094 183.585938 63.386719 182.414063 62.390625 C 181.246094 61.394531 181.105469 59.628906 182.101563 58.460938 C 183.101563 57.285156 184.867188 57.144531 186.035156 58.144531 Z M 178.761719 52.496094 C 180.023438 53.378906 180.335938 55.117188 179.460938 56.378906 C 178.578125 57.640625 176.835938 57.953125 175.574219 57.074219 C 174.3125 56.199219 173.996094 54.453125 174.878906 53.191406 C 175.757813 51.929688 177.503906 51.617188 178.761719 52.496094 Z M 170.953125 47.601563 C 172.300781 48.351563 172.785156 50.058594 172.035156 51.402344 C 171.285156 52.742188 169.578125 53.226563 168.234375 52.476563 C 166.894531 51.726563 166.410156 50.019531 167.160156 48.679688 C 167.910156 47.339844 169.617188 46.851563 170.953125 47.601563 Z M 162.699219 43.519531 C 164.109375 44.132813 164.757813 45.785156 164.144531 47.195313 C 163.53125 48.605469 161.882813 49.253906 160.472656 48.644531 C 159.0625 48.03125 158.410156 46.378906 159.023438 44.96875 C 159.636719 43.558594 161.289063 42.90625 162.699219 43.519531 Z M 154.0625 40.300781 C 155.527344 40.765625 156.339844 42.34375 155.871094 43.808594 C 155.402344 45.273438 153.824219 46.089844 152.359375 45.621094 C 150.894531 45.152344 150.078125 43.574219 150.550781 42.109375 C 151.019531 40.644531 152.59375 39.835938 154.0625 40.300781 Z M 145.136719 37.972656 C 146.640625 38.296875 147.609375 39.777344 147.289063 41.28125 C 146.976563 42.789063 145.492188 43.757813 143.984375 43.441406 C 142.480469 43.128906 141.511719 41.636719 141.828125 40.132813 C 142.144531 38.628906 143.628906 37.65625 145.136719 37.972656 Z M 145.136719 37.972656 "/>
</g>
</svg>
